<?xml version="1.0" encoding="UTF-8" standalone="no"?>
<!-- Created with Inkscape (http://www.inkscape.org/) -->

<svg
   width="210mm"
   height="297mm"
   viewBox="0 0 210 297"
   version="1.1"
   id="svg125828"
   inkscape:version="1.1 (ce6663b3b7, 2021-05-25)"
   sodipodi:docname="somador.svg"
   xmlns:inkscape="http://www.inkscape.org/namespaces/inkscape"
   xmlns:sodipodi="http://sodipodi.sourceforge.net/DTD/sodipodi-0.dtd"
   xmlns="http://www.w3.org/2000/svg"
   xmlns:svg="http://www.w3.org/2000/svg">
  <sodipodi:namedview
     id="namedview125830"
     pagecolor="#ffffff"
     bordercolor="#666666"
     borderopacity="1.0"
     inkscape:pageshadow="2"
     inkscape:pageopacity="0.0"
     inkscape:pagecheckerboard="0"
     inkscape:document-units="mm"
     showgrid="false"
     inkscape:zoom="1.1724823"
     inkscape:cx="391.90358"
     inkscape:cy="240.08892"
     inkscape:window-width="1294"
     inkscape:window-height="704"
     inkscape:window-x="72"
     inkscape:window-y="27"
     inkscape:window-maximized="1"
     inkscape:current-layer="layer1" />
  <defs
     id="defs125825" />
  <g
     inkscape:label="Layer 1"
     inkscape:groupmode="layer"
     id="layer1">
    <rect
       style="fill:#ff0000;stroke:#000000;stroke-width:0.865;stroke-dasharray:1.73, 0.865"
       id="rect125854"
       width="19.809038"
       height="25.681534"
       x="33.672112"
       y="62.478046"
       ry="0.44816184" />
    <rect
       style="fill:#ff0000;stroke:#000000;stroke-width:0.865;stroke-dasharray:1.73, 0.865"
       id="rect125854-0"
       width="19.809038"
       height="25.681534"
       x="73.432266"
       y="62.45232"
       ry="0.44816184"
       inkscape:transform-center-x="28.537368"
       inkscape:transform-center-y="-0.48377723" />
    <rect
       style="fill:#ff0000;stroke:#000000;stroke-width:0.865;stroke-dasharray:1.73, 0.865"
       id="rect125854-0-6"
       width="19.809038"
       height="25.681534"
       x="136.9987"
       y="64.867363"
       ry="0.44816184"
       inkscape:transform-center-x="28.537368"
       inkscape:transform-center-y="-0.48377723" />
    <rect
       style="fill:#ff0000;stroke:#000000;stroke-width:0.865;stroke-dasharray:1.73, 0.865"
       id="rect125854-0-6-3"
       width="19.809038"
       height="25.681534"
       x="101.70798"
       y="62.452316"
       ry="0.44816184"
       inkscape:transform-center-x="28.537368"
       inkscape:transform-center-y="-0.48377723" />
    <path
       style="fill:#ff0000;stroke:#000000;stroke-width:0.865;stroke-dasharray:1.73, 0.865"
       id="path126193"
       d="m 151.39858,28.398271 c -1.10697,3.417242 -2.78175,6.602947 -4.16049,9.909082 -0.40864,1.204371 -0.92155,2.425338 -1.07271,3.701659 -0.0625,0.527923 -0.005,0.760979 0.0547,1.286867 0.2547,1.302573 0.85213,2.492703 1.38104,3.698113 0.62089,1.347555 1.28083,2.678475 1.86319,4.043397 0.41453,0.927878 0.7086,1.898004 0.89878,2.894936 0.11186,1.349933 0.51516,2.640086 0.87571,3.938288 0.41179,1.377278 0.52966,2.808452 0.69867,4.2277 0.13327,0.806419 0.30106,1.606415 0.45409,2.409206 0,0 3.31976,-1.772234 3.31976,-1.772234 v 0 c -0.15628,-0.795703 -0.32514,-1.590829 -0.40528,-2.398991 -0.13795,-1.438576 -0.37964,-2.866416 -0.76984,-4.259807 -0.13663,-0.492898 -0.32466,-1.14441 -0.43384,-1.644846 -0.13268,-0.608158 -0.17535,-1.219203 -0.27027,-1.831983 -0.0247,-0.159456 -0.0583,-0.317397 -0.0875,-0.476096 -0.21685,-1.017297 -0.48151,-2.034392 -0.94245,-2.971962 -0.65258,-1.326838 -1.3375,-2.638544 -1.89622,-4.00953 -0.47163,-1.189241 -1.10398,-2.329423 -1.30804,-3.607353 -0.0368,-0.499721 -0.0746,-0.691811 -0.0205,-1.186844 0.13355,-1.220547 0.55169,-2.398596 0.93748,-3.554621 0.60357,-1.545408 1.26454,-3.05956 1.92605,-4.581065 0.32976,-0.758473 1.35313,-3.138506 1.69696,-3.898717 0.2314,-0.511628 0.4782,-1.016151 0.7173,-1.524228 0,0 -3.45661,1.609029 -3.45661,1.609029 z" />
    <path
       style="fill:#ff0000;stroke:#000000;stroke-width:0.865;stroke-dasharray:1.73, 0.865"
       id="path126195"
       d="m 143.65187,28.31557 c -0.79506,1.694323 -1.98657,3.163631 -3.14115,4.622774 -0.97333,1.379707 -2.25246,2.457781 -3.6213,3.421507 -0.23712,0.163044 -0.47509,0.32485 -0.71135,0.489132 -0.76138,0.529421 -1.51896,1.058744 -2.30876,1.545955 -0.39081,0.241081 -1.48716,1.051529 -1.18083,0.709457 0.34461,-0.384805 0.8669,-0.561949 1.30035,-0.842926 -1.75787,0.96523 -3.67609,1.596668 -5.46883,2.485044 -1.54025,0.763259 -5.06934,3.10588 -5.60122,3.501803 -0.37793,0.281326 -0.60385,0.723368 -0.90578,1.08505 -1.20279,1.961531 -1.59428,4.081368 -1.95519,6.304937 -0.17711,0.848132 -0.2781,1.721532 -0.5695,2.542344 -0.0812,0.228658 -0.40844,0.960384 -0.49662,1.160793 -0.10564,0.2266 -0.20682,0.455337 -0.31694,0.679799 -0.48161,0.981692 -0.20831,0.331719 -0.64315,1.322128 -0.2405,0.547762 -0.45406,1.1063 -0.69438,1.65421 -0.30846,0.61927 -0.50398,1.25713 -0.57732,1.942269 -0.0259,0.604446 0.006,1.210678 0.0174,1.815391 0,0 3.39281,-1.727682 3.39281,-1.727682 v 0 c 0.0144,-0.60611 0.023,-1.213649 0.0898,-1.816907 0.0906,-0.633743 0.30968,-1.229402 0.5612,-1.81674 0.49691,-1.232212 1.00606,-2.455413 1.62242,-3.634528 0.20929,-0.474853 0.33802,-0.72998 0.49296,-1.217073 0.2645,-0.831461 0.34362,-1.704261 0.49811,-2.558978 0.32356,-2.144388 0.64426,-4.223407 1.91261,-6.059766 1.93805,-2.169326 0.44932,-0.227623 -0.98458,-0.158139 -0.54231,0.02627 0.91768,-0.583162 1.39984,-0.832778 0.3237,-0.167574 3.34415,-1.494862 3.55695,-1.591231 0.65465,-0.296457 1.30448,-0.603448 1.95672,-0.905171 3.1088,-1.71078 6.2651,-3.334298 9.11598,-5.461098 1.34481,-0.985861 2.56845,-2.107179 3.51528,-3.493881 1.17827,-1.548252 2.43299,-3.085769 3.28765,-4.842084 0,0 -3.54316,1.676389 -3.54316,1.676389 z" />
    <path
       style="fill:#ff0000;stroke:#000000;stroke-width:0.865;stroke-dasharray:1.73, 0.865"
       id="path126197"
       d="m 124.82142,22.911238 c -3.09566,1.771142 -6.18886,3.548198 -9.16485,5.515148 -2.27062,1.639189 -4.62541,3.145179 -7.01944,4.595873 -4.03004,2.383761 0.10593,-0.03583 0.15262,-0.06562 0.38112,-0.243178 -0.78748,0.444352 -1.1825,0.664223 -0.91264,0.507974 -1.83696,0.983674 -2.77085,1.450872 -0.28923,0.128945 -0.57679,0.261686 -0.86767,0.386837 -1.16177,0.499832 -2.32885,0.968581 -3.45595,1.546497 -1.663337,0.852877 -4.384349,2.515431 -5.484536,3.161025 -1.683198,1.078677 -3.006707,2.599518 -3.961834,4.349099 -0.159642,0.292423 -0.289602,0.600099 -0.434401,0.90015 -0.101645,0.302662 -0.228423,0.598014 -0.304938,0.907983 -0.159107,0.644589 -0.251505,1.621203 -0.304953,2.270128 -0.09628,1.168998 -0.125254,2.341877 -0.161245,3.513778 -0.07694,1.389629 -0.303633,2.76434 -0.436285,4.148452 -0.05523,0.868379 0.02845,1.739318 -0.05408,2.607252 -0.06153,0.647078 -0.125843,0.822301 -0.27515,1.458441 -0.288267,0.941769 -0.143664,0.477446 -0.43348,1.393074 0,0 3.427081,-1.619427 3.427081,-1.619427 v 0 c 0.274416,-0.92151 0.138568,-0.450631 0.406588,-1.412912 0.05471,-0.256702 0.121169,-0.511178 0.164137,-0.770104 0.185285,-1.116574 0.08948,-2.256153 0.216352,-3.378491 0.09907,-1.365076 0.229302,-2.728241 0.280472,-4.096372 0.029,-2.204239 0.03537,-4.483124 0.86596,-6.55941 0.141536,-0.285668 0.268928,-0.578789 0.424606,-0.857004 0.955334,-1.707258 2.314673,-3.127877 3.971385,-4.166481 -0.656989,0.365215 -1.314913,0.728761 -1.970971,1.095648 -0.409363,0.228928 0.815435,-0.464069 1.230879,-0.681765 1.094629,-0.573593 2.223701,-1.030132 3.365503,-1.496156 0.29492,-0.120372 0.58723,-0.247057 0.88084,-0.370586 3.41701,-1.717942 6.70857,-3.67312 9.98542,-5.643382 2.42219,-1.466048 4.81696,-2.969411 7.10332,-4.642411 1.46714,-0.95746 0.96932,-0.649309 2.49326,-1.574916 0.40403,-0.245397 1.63123,-0.955382 1.21466,-0.73194 -4.23923,2.273844 -1.92689,1.173671 -0.96261,0.557 0,0 3.06266,-2.454501 3.06266,-2.454501 z" />
    <path
       style="fill:#ff0000;stroke:#000000;stroke-width:0.865;stroke-dasharray:1.73, 0.865"
       id="path126199"
       d="m 104.65604,21.126358 c -2.3921,0.918407 -4.64857,2.151167 -6.923787,3.320985 -2.606802,1.392159 -5.303599,2.601482 -7.96495,3.882655 -1.760262,0.960385 -3.669096,1.626979 -5.414952,2.614007 -1.520423,0.859581 -3.021317,1.753248 -4.531976,2.629873 -2.722896,1.748764 -5.468218,3.465039 -8.078621,5.379524 -2.816318,2.048259 -5.803328,3.845343 -8.554987,5.98264 -1.365909,1.150135 -2.463665,2.582904 -3.579686,3.969168 -0.751662,1.041707 -1.23046,2.236332 -1.864029,3.348008 -0.773242,1.285714 -1.791898,2.365857 -2.896343,3.36623 -0.770837,0.650267 -1.524,1.347277 -2.398316,1.858193 -0.612026,0.289885 -1.015542,0.802031 -1.437314,1.309528 -0.441669,0.472986 -0.783847,0.99658 -0.963028,1.618293 -0.0535,0.403402 -0.0576,0.8114 -0.06688,1.217623 0,0 3.472767,-1.757151 3.472767,-1.757151 v 0 c 0.0127,-0.377195 0.01667,-0.761336 0.135274,-1.123797 0.215162,-0.558413 0.590542,-1.020561 0.987486,-1.462828 0.434726,-0.486063 0.908706,-0.899853 1.48772,-1.208828 0.812369,-0.569529 1.561886,-1.226762 2.297599,-1.890583 1.091031,-1.025237 2.058175,-2.164919 2.821099,-3.45975 0.635513,-1.104715 1.149487,-2.280817 1.914302,-3.306813 1.070521,-1.356214 2.143292,-2.738146 3.488045,-3.836392 2.711265,-2.124958 5.656426,-3.915939 8.45059,-5.92701 2.631729,-1.877248 5.35363,-3.623646 8.088003,-5.347097 -0.530069,0.300506 -1.098269,0.541975 -1.590209,0.90152 -0.373285,0.272822 0.81553,-0.436359 1.23109,-0.639048 1.034336,-0.504505 2.102967,-0.937702 3.137951,-1.442236 0.330297,-0.161015 0.656873,-0.32956 0.985308,-0.49434 2.682393,-1.329917 5.415534,-2.556179 8.064579,-3.953311 2.168814,-1.110493 4.315897,-2.286573 6.595805,-3.157726 0,0 3.10746,-2.391337 3.10746,-2.391337 z" />
    <text
       xml:space="preserve"
       style="font-size:7.76111px;line-height:1.25;font-family:sans-serif;letter-spacing:0px;word-spacing:0px;stroke-width:0.264583"
       x="160.49997"
       y="25.801003"
       id="text126555"><tspan
         sodipodi:role="line"
         id="tspan126553"
         style="font-size:7.76111px;stroke-width:0.264583"
         x="160.49997"
         y="25.801003">A</tspan></text>
    <text
       xml:space="preserve"
       style="font-size:12.7px;line-height:1.25;font-family:sans-serif;letter-spacing:0px;word-spacing:0px;stroke-width:0.264583"
       x="101.74265"
       y="16.890123"
       id="text130049"><tspan
         sodipodi:role="line"
         id="tspan130047"
         style="font-size:12.7px;stroke-width:0.264583"
         x="101.74265"
         y="16.890123">a3a2a1a0</tspan></text>
    <text
       xml:space="preserve"
       style="font-size:12.7px;line-height:1.25;font-family:sans-serif;letter-spacing:0px;word-spacing:0px;stroke-width:0.264583"
       x="5.3765378"
       y="20.403173"
       id="text130049-2"><tspan
         sodipodi:role="line"
         id="tspan130047-0"
         style="font-size:12.7px;stroke-width:0.264583"
         x="5.3765378"
         y="20.403173">b3b2b1b0</tspan></text>
    <text
       xml:space="preserve"
       style="font-size:12.7px;line-height:1.25;font-family:sans-serif;letter-spacing:0px;word-spacing:0px;stroke-width:0.264583"
       x="38.49049"
       y="79.903831"
       id="text130049-2-6"><tspan
         sodipodi:role="line"
         id="tspan130047-0-1"
         style="font-size:12.7px;stroke-width:0.264583"
         x="38.49049"
         y="79.903831">+</tspan></text>
    <text
       xml:space="preserve"
       style="font-size:12.7px;line-height:1.25;font-family:sans-serif;letter-spacing:0px;word-spacing:0px;stroke-width:0.264583"
       x="77.343605"
       y="79.351875"
       id="text130049-2-6-5"><tspan
         sodipodi:role="line"
         id="tspan130047-0-1-5"
         style="font-size:12.7px;stroke-width:0.264583"
         x="77.343605"
         y="79.351875">+</tspan></text>
    <text
       xml:space="preserve"
       style="font-size:12.7px;line-height:1.25;font-family:sans-serif;letter-spacing:0px;word-spacing:0px;stroke-width:0.264583"
       x="106.68812"
       y="80.984512"
       id="text130049-2-6-5-4"><tspan
         sodipodi:role="line"
         id="tspan130047-0-1-5-7"
         style="font-size:12.7px;stroke-width:0.264583"
         x="106.68812"
         y="80.984512">+</tspan></text>
    <text
       xml:space="preserve"
       style="font-size:12.7px;line-height:1.25;font-family:sans-serif;letter-spacing:0px;word-spacing:0px;stroke-width:0.264583"
       x="143.12177"
       y="83.090515"
       id="text130049-2-6-5-4-6"><tspan
         sodipodi:role="line"
         id="tspan130047-0-1-5-7-5"
         style="font-size:12.7px;stroke-width:0.264583"
         x="143.12177"
         y="83.090515">+</tspan></text>
    <path
       style="fill:#0000ff;stroke:#000000;stroke-width:0.865;stroke-dasharray:1.73, 0.865"
       id="path135350"
       d="m 62.464354,21.407298 c 1.643224,0.668343 3.091569,1.736271 4.557731,2.717742 3.220397,2.17259 6.853706,3.593461 10.4556,4.989268 2.619915,1.044255 4.077377,1.641247 6.77854,2.646106 1.386134,0.515654 2.761626,1.064667 4.171667,1.510818 2.09532,0.662977 4.227703,1.202632 6.338464,1.814677 7.799044,2.261446 6.839084,1.998908 14.614494,4.377089 5.54848,1.725758 11.06045,3.566149 16.54215,5.492813 2.16295,0.760214 3.89354,1.362028 5.98243,2.221905 0.74525,0.306776 1.47681,0.645814 2.21521,0.968719 1.87821,0.905521 3.75509,1.858505 5.36606,3.199582 0.50851,0.423318 0.68162,0.619684 1.12266,1.069459 0.12129,0.135983 0.24972,0.265925 0.36388,0.407943 0.28612,0.35592 0.60926,0.87281 0.85314,1.232508 0.65302,0.963129 1.28494,1.923926 1.87965,2.924511 0.679,1.204326 1.2875,2.45681 1.63056,3.802417 0.22608,0.886738 0.25218,1.262047 0.37792,2.168335 0.033,0.360929 0.0659,0.72186 0.0989,1.082789 0,0 3.27477,-1.708587 3.27477,-1.708587 v 0 c -0.0373,-0.364855 -0.0746,-0.72971 -0.11189,-1.094565 -0.10588,-0.728298 -0.2013,-1.518089 -0.38336,-2.233142 -0.34882,-1.370018 -1.0017,-2.647365 -1.69955,-3.866504 -0.60871,-0.985271 -1.24344,-1.956718 -1.8319,-2.954282 -0.25943,-0.439783 -0.49103,-0.941864 -0.81844,-1.344282 -0.12034,-0.147902 -0.26917,-0.270129 -0.40375,-0.405193 -0.49132,-0.446421 -0.67958,-0.636207 -1.23846,-1.053992 -1.7381,-1.299273 -3.72118,-2.207093 -5.69278,-3.088253 -0.77105,-0.307674 -1.53252,-0.640522 -2.31314,-0.923021 -2.22328,-0.804571 -4.06981,-1.297389 -6.37305,-1.970423 C 122.4993,41.719547 116.77527,40.051884 111.07388,38.308462 100.63087,35.083226 90.139574,31.885564 80.193017,27.299435 76.732028,25.780237 73.217859,24.297746 70.072318,22.17408 68.928133,21.398429 68.949783,21.427865 67.846743,20.622629 67.169757,20.128416 66.518477,19.588873 65.743571,19.2501 c 0,0 -3.279217,2.157198 -3.279217,2.157198 z" />
    <path
       style="fill:#0000ff;stroke:#000000;stroke-width:0.865;stroke-dasharray:1.73, 0.865"
       id="path135385"
       d="m 45.696179,22.503227 c 1.45624,0.526882 2.7236,1.494029 3.970856,2.387927 1.747748,1.252598 2.650572,1.955958 4.422317,3.296459 0.946812,0.743915 1.887384,1.495843 2.84044,2.231744 1.0952,0.845659 2.208011,1.66833 3.30414,2.512785 1.949096,1.501579 3.856001,3.057522 5.809591,4.553249 1.79505,1.374346 3.093051,2.284569 4.912011,3.588525 4.718235,3.096752 9.719146,5.750835 14.796831,8.205364 3.406534,1.597927 6.950257,2.866742 10.425726,4.299649 0.959583,0.421132 1.973318,0.719299 2.881738,1.252085 0.816301,0.478758 1.283391,0.845867 2.070221,1.411533 1.25135,0.975273 2.50732,1.977716 3.56144,3.171756 0.40306,0.456557 0.65612,0.830607 1.01613,1.325753 0.19958,0.285377 0.39916,0.570754 0.59875,0.856131 0,0 3.19629,-1.873837 3.19629,-1.873837 v 0 c -0.1894,-0.295439 -0.3788,-0.590876 -0.5682,-0.886315 -0.40029,-0.574701 -0.57434,-0.873154 -1.05432,-1.377084 -1.11564,-1.171316 -2.469,-2.098125 -3.68766,-3.152111 -0.86289,-0.683149 -1.72545,-1.460289 -2.71165,-1.969633 -0.71064,-0.36703 -1.520414,-0.486598 -2.248397,-0.809519 C 95.647977,50.226764 91.978183,49.136609 88.553376,47.42843 83.438586,45.034184 78.358943,42.532625 73.687264,39.333048 67.83529,35.355784 62.133408,31.143813 56.806462,26.479156 54.970812,24.955523 53.171044,23.379424 51.277985,21.926609 50.970679,21.69077 49.80038,20.820164 49.392329,20.559948 49.255153,20.472471 49.103295,20.410489 48.95878,20.33576 c 0,0 -3.262601,2.167467 -3.262601,2.167467 z" />
    <path
       style="fill:#0000ff;stroke:#000000;stroke-width:0.865;stroke-dasharray:1.73, 0.865"
       id="path135387"
       d="m 22.50633,22.326859 c 0.238104,0.154603 0.486783,0.294025 0.714311,0.463809 0.344652,0.257184 0.666597,0.543473 0.999822,0.8153 0.518583,0.42303 1.041732,0.840528 1.555601,1.269273 1.640817,1.369008 2.043616,1.835608 3.89607,3.085457 0.917419,0.618982 1.880531,1.167379 2.820797,1.751065 5.358326,3.162113 10.872679,6.048177 16.471746,8.757349 1.592879,0.847045 3.305808,1.438574 4.882962,2.316406 0.846291,0.471037 1.678271,1.03006 2.489915,1.556337 1.535689,0.971836 2.897044,2.181828 4.384619,3.220725 0.621882,0.434311 1.192914,0.791216 1.829803,1.198843 2.135129,1.431391 4.191418,2.974009 6.286926,4.461669 0.436131,0.31837 0.871715,0.637495 1.308394,0.955114 2.410314,1.753126 0.73733,0.542777 3.280653,2.334038 0.90815,0.639611 2.146183,1.500275 3.022653,2.216599 0.342564,0.279972 0.659312,0.590119 0.98897,0.88518 0.423931,0.495612 1.034179,0.980464 1.17316,1.662655 0.07142,0.350589 -0.04051,0.747969 -0.106241,1.089083 -0.103592,0.505812 -0.236479,1.003784 -0.370065,1.502077 0,0 3.517395,-1.678922 3.517395,-1.678922 v 0 c 0.131691,-0.50302 0.242869,-1.010335 0.327869,-1.523569 0.05739,-0.421753 0.137332,-0.863735 -0.01241,-1.279432 -0.257109,-0.713796 -0.943197,-1.185111 -1.452645,-1.69499 -1.357111,-1.066138 -2.774844,-2.028155 -4.180961,-3.028254 -1.792529,-1.274929 -1.499831,-1.069586 -3.176029,-2.387385 -0.421156,-0.331105 -0.84127,-0.663536 -1.261904,-0.995302 -1.096277,-0.800029 -2.21656,-1.564203 -3.305495,-2.374291 -0.697714,-0.519047 -1.373085,-1.068092 -2.078448,-1.576695 -0.276913,-0.199668 -0.565674,-0.382373 -0.848508,-0.573561 -0.966862,-0.592209 -1.929022,-1.186249 -2.851219,-1.84736 -2.709325,-1.942291 0.651762,0.40786 -2.225222,-1.66328 -0.402519,-0.289774 -0.816198,-0.563724 -1.224296,-0.845587 -1.218316,-0.797753 -2.429,-1.622806 -3.734046,-2.276343 -0.726308,-0.363717 -1.593054,-0.689808 -2.344875,-0.992846 -0.477605,-0.192508 -0.954572,-0.38659 -1.431859,-0.579887 -1.504323,-0.619665 -2.73059,-1.111287 -4.234931,-1.795949 -4.306732,-1.9601 -8.479491,-4.214093 -12.479639,-6.741803 -0.892943,-0.603322 -1.808166,-1.174914 -2.67883,-1.809961 -2.436918,-1.777434 -4.506209,-3.961795 -6.716695,-5.995733 0,0 -3.237357,2.120171 -3.237357,2.120171 z" />
    <path
       style="fill:#0000ff;stroke:#000000;stroke-width:0.865;stroke-dasharray:1.73, 0.865"
       id="path135389"
       d="m 9.8290392,22.363073 c 3.2972368,3.186357 5.9243068,6.95897 8.5613348,10.686367 1.675983,2.4991 3.437066,4.941498 5.105412,7.445697 0.523813,0.78625 1.030951,1.583508 1.553461,2.370622 1.285127,1.836415 2.491819,3.730204 3.80334,5.547929 0.780032,1.01945 1.658742,1.962412 2.386955,3.021417 0.377454,0.548918 0.566748,0.894223 0.903337,1.467051 0.692156,1.276133 1.320091,2.585077 2.081655,3.822335 0.418801,0.661099 1.05755,1.109596 1.651783,1.597864 0.663408,0.545105 0.436266,0.354544 1.08322,0.929084 0.824534,0.702236 1.388626,1.43882 1.730814,2.460739 0,0 3.370458,-1.871062 3.370458,-1.871062 v 0 C 41.638714,58.79933 41.013856,58.01026 40.177254,57.255923 39.286497,56.446189 38.292278,55.73129 37.528589,54.794525 36.713548,53.596523 36.101205,52.282828 35.389685,51.023546 35.002864,50.370385 34.892657,50.153982 34.451403,49.531687 33.709289,48.485099 32.831738,47.541915 32.085616,46.497779 30.73047,44.713622 29.42473,42.890162 28.175852,41.03017 c -2.261937,-3.260114 -4.736991,-6.365486 -7.013496,-9.615606 -1.69296,-2.386407 -3.354122,-4.799852 -5.08277,-7.160597 -2.704871,-3.693934 -0.191997,-0.171994 -2.387667,-3.138078 -0.178726,-0.241436 -0.342694,-0.493455 -0.514041,-0.740182 0,0 -3.3488388,1.987366 -3.3488388,1.987366 z" />
    <path
       style="fill:#ffff00;stroke:#000000;stroke-width:0.865;stroke-dasharray:1.73, 0.865"
       id="path135391"
       d="m 146.18957,91.914492 c 0.0342,1.192265 0.0265,2.380104 0.13961,3.568483 0.16425,1.649852 0.26018,3.305231 0.32443,4.961645 0.0805,0.81634 0.17415,1.63076 0.21769,2.45015 0.10825,1.27884 -0.34043,2.51937 -0.64465,3.746 0,0 3.37456,-1.6173 3.37456,-1.6173 v 0 c 0.47663,-1.92025 -0.0506,0.18387 0.45261,-1.76241 0.18389,-0.71129 0.36709,-1.41427 0.2678,-2.15404 -0.0674,-0.80971 -0.1751,-1.614348 -0.26561,-2.421645 -0.13268,-1.639903 -0.33024,-3.274713 -0.40877,-4.918898 -0.0345,-1.208558 -0.0151,-2.418386 0.0254,-3.626694 0,0 -3.48306,1.774709 -3.48306,1.774709 z" />
    <path
       style="fill:#ffff00;stroke:#000000;stroke-width:0.865;stroke-dasharray:1.73, 0.865"
       id="path135426"
       d="m 109.37244,90.781546 c 0.45292,2.161045 0.53519,4.379473 0.61287,6.579939 0.006,0.256484 0.0124,0.512942 0.0166,0.769448 0.008,0.463545 -0.007,0.770125 0.0496,1.230678 0.0724,0.584573 0.22033,1.166799 0.33517,1.744149 0.0736,0.95626 -0.0242,1.91552 -0.0962,2.86919 -0.091,0.67515 -0.21782,1.33282 -0.4097,1.98617 0,0 3.50631,-1.66762 3.50631,-1.66762 v 0 c 0.17938,-0.67326 0.30946,-1.35824 0.36233,-2.05399 0.0476,-0.97831 0.13489,-1.96232 0.0119,-2.938719 -0.11504,-0.562309 -0.25824,-1.123868 -0.32109,-1.695403 -0.0715,-0.649909 -0.0612,-1.308589 -0.13552,-1.958408 -0.16891,-2.230073 -0.35702,-4.458737 -0.5302,-6.688482 0,0 -3.40207,1.823048 -3.40207,1.823048 z" />
    <path
       style="fill:#ffff00;stroke:#000000;stroke-width:0.865;stroke-dasharray:1.73, 0.865"
       id="path135428"
       d="m 82.751021,89.397934 c 0.190979,2.679171 0.05647,5.368401 -0.04328,8.048673 -0.06642,1.860446 -0.176544,3.718773 -0.219639,5.579983 -0.04234,0.96722 0.01177,1.93624 0.151789,2.89371 0.153437,0.58929 0.296815,1.1752 0.377306,1.77919 0,0 3.424404,-1.80273 3.424404,-1.80273 v 0 c -0.08173,-0.60562 -0.223271,-1.1908 -0.386334,-1.77921 -0.134773,-0.93419 -0.179117,-1.87773 -0.162935,-2.82126 -0.0066,-1.821864 -0.02638,-3.64393 0.0096,-5.465626 0.05568,-2.734961 0.159755,-5.468086 0.315947,-8.199175 0,0 -3.466849,1.766445 -3.466849,1.766445 z" />
    <path
       style="fill:#ffff00;stroke:#000000;stroke-width:0.865;stroke-dasharray:1.73, 0.865"
       id="path135430"
       d="m 43.691357,89.067586 c 1.235924,0.548529 1.937406,1.688698 2.477132,2.871906 0.604536,1.683129 0.428662,3.514008 0.316082,5.265968 -0.01029,1.305507 -0.351277,2.555952 -0.655047,3.81345 -0.216297,1.02391 -0.524042,2.02449 -0.763109,3.04314 0,0 3.445619,-1.65607 3.445619,-1.65607 v 0 c 0.241434,-1.01455 0.517255,-2.02064 0.754059,-3.036419 0.308057,-1.268058 0.608034,-2.536338 0.573355,-3.853693 0.04382,-1.480878 0.210484,-3.25972 -0.134247,-4.698145 -0.06048,-0.252355 -0.163555,-0.492557 -0.245335,-0.738833 -0.57921,-1.239258 -1.31482,-2.424205 -2.504061,-3.161263 0,0 -3.264448,2.149959 -3.264448,2.149959 z" />
    <path
       style="fill:#ff00ff;stroke:#000000;stroke-width:0.865;stroke-dasharray:1.73, 0.865"
       id="path135531"
       d="m 139.55525,74.6479 c -0.76076,0.251749 -1.55,0.401027 -2.31144,0.6477 -1.39928,0.556612 -2.93829,0.588251 -4.42401,0.662612 -1.02092,-0.0099 -2.02593,0.08405 -3.02952,0.260393 -0.97072,0.168894 -1.95791,0.200056 -2.94067,0.226036 0,0 -3.07631,2.247834 -3.07631,2.247834 v 0 c 0.97763,-0.02715 1.95795,-0.03644 2.93071,-0.147738 0.43665,-0.07811 0.8726,-0.1845 1.3123,-0.243248 0.44446,-0.05938 0.63771,-0.04949 1.0948,-0.07133 0.22299,-0.01066 0.44581,-0.02445 0.66871,-0.03669 0.86992,-0.05552 1.73956,-0.113307 2.60807,-0.18829 0.39175,-0.03382 1.0103,-0.07433 1.41726,-0.178049 0.13622,-0.03472 0.26301,-0.09934 0.39451,-0.149008 0.72126,-0.308118 1.50379,-0.405977 2.24767,-0.651423 0,0 3.10792,-2.378792 3.10792,-2.378792 z" />
    <path
       style="fill:#ff00ff;stroke:#000000;stroke-width:0.865;stroke-dasharray:1.73, 0.865"
       id="path135566"
       d="m 103.7689,76.374434 c -1.31706,0.06335 -2.63602,0.04547 -3.95396,0.02963 -0.780103,-0.008 -1.560296,-0.01794 -2.340452,-0.02016 -0.859223,0.0068 -1.718365,0.01998 -2.577584,0.02693 0,0 -3.073265,2.232859 -3.073265,2.232859 v 0 c 0.834512,0.0069 1.668942,0.02021 2.503461,0.02693 0.798656,-0.0021 1.59734,-0.01228 2.395943,-0.02016 1.290695,-0.01503 2.582714,-0.03651 3.872417,0.02963 0,0 3.17344,-2.305648 3.17344,-2.305648 z" />
    <path
       style="fill:#ff00ff;stroke:#000000;stroke-width:0.865;stroke-dasharray:1.73, 0.865"
       id="path135568"
       d="m 74.467153,76.967193 c -2.637909,0.361183 -5.299366,0.473371 -7.957471,0.566335 -2.10689,0.07163 -4.215225,0.0753 -6.322938,0.05063 -1.041204,-0.03109 -2.082596,-0.0037 -3.12392,7.94e-4 -0.230737,5.29e-4 -0.461478,7.94e-4 -0.692218,0.0013 0,0 -3.070657,2.230599 -3.070657,2.230599 v 0 c 0.229018,7.94e-4 0.458036,0.0016 0.687054,0.0024 1.041411,0.0065 2.08297,0.03963 3.124222,0.0019 2.166847,-0.04641 4.333512,-0.101692 6.49992,-0.165422 2.564302,-0.09828 5.129686,-0.205272 7.689416,-0.387853 0,0 3.166592,-2.300663 3.166592,-2.300663 z" />
    <path
       style="fill:#ff00ff;stroke:#000000;stroke-width:0.865;stroke-dasharray:1.73, 0.865"
       id="path135570"
       d="m 33.603456,78.111182 c -0.758851,-0.0077 -1.507437,0.02212 -2.259322,0.128225 -1.432806,0.25563 -2.874708,0.457288 -4.299839,0.753568 -1.320876,0.267473 -2.631989,0.55073 -3.891787,1.035942 -1.679074,0.860433 -1.292976,0.647824 -4.238568,2.503281 -0.260865,0.164319 -0.612489,0.579583 -0.770616,0.829146 -0.197479,0.311666 -0.74028,1.422302 -0.874385,1.690621 -1.203929,2.420099 -2.263957,4.903436 -3.23428,7.425158 -0.892752,2.197799 -1.558912,4.471641 -1.972591,6.805546 -0.164069,0.968591 0.0095,1.907381 0.264905,2.837681 0,0 3.415217,-1.86434 3.415217,-1.86434 v 0 c -0.267278,-0.859525 -0.42657,-1.728258 -0.289878,-2.633334 0.326711,-2.283343 0.956657,-4.503549 1.817541,-6.644383 1.01169,-2.529726 2.130344,-5.017267 3.372684,-7.442787 0.41578,-0.740336 0.791995,-1.497235 1.422753,-2.082644 0.127945,-0.118748 0.561563,-0.410324 0.406516,-0.330126 -1.637965,0.847243 -3.964361,2.279827 -2.322065,1.274643 1.244242,-0.55926 2.563048,-0.848185 3.893884,-1.126654 1.405138,-0.306144 2.830823,-0.49481 4.247135,-0.741505 0.709383,-0.117025 1.415193,-0.14827 2.13355,-0.108254 0,0 3.179146,-2.309784 3.179146,-2.309784 z" />
  </g>
</svg>
